<mxfile host="app.diagrams.net" modified="2021-01-06T09:13:50.028Z" agent="5.0 (Windows NT 10.0; Win64; x64) AppleWebKit/537.36 (KHTML, like Gecko) Chrome/87.0.4280.88 Safari/537.36" etag="pZmR1_2dp2mfMjIrLnVK" version="14.0.4" type="github">
  <diagram id="UxMxldDMPaRsQCXvSrtg" name="Page-1">
    <mxGraphModel dx="1422" dy="705" grid="1" gridSize="10" guides="1" tooltips="1" connect="1" arrows="1" fold="1" page="1" pageScale="1" pageWidth="827" pageHeight="1169" math="0" shadow="0">
      <root>
        <mxCell id="0" />
        <mxCell id="1" parent="0" />
        <mxCell id="jRLjsOb8oNWtCYwyCR3H-2" style="edgeStyle=orthogonalEdgeStyle;rounded=0;orthogonalLoop=1;jettySize=auto;html=1;fontSize=20;" edge="1" parent="1" source="8K2r_tsUIS1p7Gab6ZQ4-1" target="jRLjsOb8oNWtCYwyCR3H-1">
          <mxGeometry relative="1" as="geometry" />
        </mxCell>
        <mxCell id="8K2r_tsUIS1p7Gab6ZQ4-1" value="Maske&lt;br style=&quot;font-size: 18px&quot;&gt;(HMI)&lt;br style=&quot;font-size: 18px&quot;&gt;(Visualisierung)&lt;br style=&quot;font-size: 18px&quot;&gt;&lt;br style=&quot;font-size: 18px&quot;&gt;Sprach:&lt;br style=&quot;font-size: 18px&quot;&gt;HTML&lt;br style=&quot;font-size: 18px&quot;&gt;CSS&lt;br style=&quot;font-size: 18px&quot;&gt;Javascript" style="rounded=0;whiteSpace=wrap;html=1;strokeWidth=2;fontSize=18;" parent="1" vertex="1">
          <mxGeometry x="40" y="200" width="160" height="320" as="geometry" />
        </mxCell>
        <mxCell id="8K2r_tsUIS1p7Gab6ZQ4-2" value="Date source&lt;br style=&quot;font-size: 18px;&quot;&gt;(variable deklarieren)&lt;br style=&quot;font-size: 18px;&quot;&gt;(UDT or default)&lt;br style=&quot;font-size: 18px;&quot;&gt;&lt;br style=&quot;font-size: 18px;&quot;&gt;C#" style="rounded=0;whiteSpace=wrap;html=1;strokeWidth=2;fontSize=18;" parent="1" vertex="1">
          <mxGeometry x="280" y="200" width="200" height="320" as="geometry" />
        </mxCell>
        <mxCell id="8K2r_tsUIS1p7Gab6ZQ4-3" value="Workflow Schritt und action&lt;br style=&quot;font-size: 18px&quot;&gt;(logic)&lt;br style=&quot;font-size: 18px&quot;&gt;(validieren und berechtigen)&lt;br style=&quot;font-size: 18px&quot;&gt;&lt;br style=&quot;font-size: 18px&quot;&gt;Sprach:&lt;br style=&quot;font-size: 18px&quot;&gt;C#" style="rounded=0;whiteSpace=wrap;html=1;strokeWidth=2;fontSize=18;" parent="1" vertex="1">
          <mxGeometry x="560" y="200" width="240" height="320" as="geometry" />
        </mxCell>
        <mxCell id="8K2r_tsUIS1p7Gab6ZQ4-4" value="" style="endArrow=none;dashed=1;html=1;strokeWidth=2;fontSize=18;" parent="1" edge="1">
          <mxGeometry width="50" height="50" relative="1" as="geometry">
            <mxPoint x="240" y="570" as="sourcePoint" />
            <mxPoint x="240" y="120" as="targetPoint" />
          </mxGeometry>
        </mxCell>
        <mxCell id="8K2r_tsUIS1p7Gab6ZQ4-5" value="" style="endArrow=none;dashed=1;html=1;strokeWidth=2;fontSize=18;" parent="1" edge="1">
          <mxGeometry width="50" height="50" relative="1" as="geometry">
            <mxPoint x="520" y="570" as="sourcePoint" />
            <mxPoint x="520" y="120" as="targetPoint" />
          </mxGeometry>
        </mxCell>
        <mxCell id="8K2r_tsUIS1p7Gab6ZQ4-6" value="" style="endArrow=classic;startArrow=classic;html=1;entryX=0;entryY=0.5;entryDx=0;entryDy=0;exitX=1;exitY=0.5;exitDx=0;exitDy=0;strokeWidth=2;fontSize=18;" parent="1" source="8K2r_tsUIS1p7Gab6ZQ4-1" target="8K2r_tsUIS1p7Gab6ZQ4-2" edge="1">
          <mxGeometry width="50" height="50" relative="1" as="geometry">
            <mxPoint x="220" y="370" as="sourcePoint" />
            <mxPoint x="270" y="320" as="targetPoint" />
          </mxGeometry>
        </mxCell>
        <mxCell id="8K2r_tsUIS1p7Gab6ZQ4-7" value="" style="endArrow=classic;html=1;exitX=0.5;exitY=0;exitDx=0;exitDy=0;entryX=0.5;entryY=0;entryDx=0;entryDy=0;strokeWidth=2;fontSize=18;" parent="1" source="8K2r_tsUIS1p7Gab6ZQ4-1" target="8K2r_tsUIS1p7Gab6ZQ4-3" edge="1">
          <mxGeometry width="50" height="50" relative="1" as="geometry">
            <mxPoint x="110" y="220" as="sourcePoint" />
            <mxPoint x="160" y="170" as="targetPoint" />
            <Array as="points">
              <mxPoint x="400" y="120" />
            </Array>
          </mxGeometry>
        </mxCell>
        <mxCell id="8K2r_tsUIS1p7Gab6ZQ4-8" value="" style="endArrow=classic;html=1;entryX=-0.017;entryY=0.472;entryDx=0;entryDy=0;entryPerimeter=0;strokeWidth=2;fontSize=18;" parent="1" edge="1">
          <mxGeometry width="50" height="50" relative="1" as="geometry">
            <mxPoint x="483" y="360" as="sourcePoint" />
            <mxPoint x="555.9200000000001" y="360.03999999999996" as="targetPoint" />
          </mxGeometry>
        </mxCell>
        <mxCell id="jRLjsOb8oNWtCYwyCR3H-1" value="Datenbank" style="rounded=0;whiteSpace=wrap;html=1;fontSize=20;" vertex="1" parent="1">
          <mxGeometry x="60" y="760" width="120" height="60" as="geometry" />
        </mxCell>
        <mxCell id="jRLjsOb8oNWtCYwyCR3H-3" value="Settings URLs" style="text;html=1;strokeColor=none;fillColor=none;align=center;verticalAlign=middle;whiteSpace=wrap;rounded=0;fontSize=20;" vertex="1" parent="1">
          <mxGeometry x="100" y="640" width="190" height="20" as="geometry" />
        </mxCell>
        <mxCell id="jRLjsOb8oNWtCYwyCR3H-4" value="" style="endArrow=classic;startArrow=classic;html=1;fontSize=20;entryX=0.5;entryY=1;entryDx=0;entryDy=0;exitX=0.5;exitY=0;exitDx=0;exitDy=0;" edge="1" parent="1" source="jRLjsOb8oNWtCYwyCR3H-5" target="8K2r_tsUIS1p7Gab6ZQ4-2">
          <mxGeometry width="50" height="50" relative="1" as="geometry">
            <mxPoint x="380" y="660" as="sourcePoint" />
            <mxPoint x="600" y="680" as="targetPoint" />
          </mxGeometry>
        </mxCell>
        <mxCell id="jRLjsOb8oNWtCYwyCR3H-5" value="Binding" style="text;html=1;strokeColor=none;fillColor=none;align=center;verticalAlign=middle;whiteSpace=wrap;rounded=0;fontSize=20;" vertex="1" parent="1">
          <mxGeometry x="350" y="670" width="60" height="40" as="geometry" />
        </mxCell>
        <mxCell id="jRLjsOb8oNWtCYwyCR3H-6" value="" style="endArrow=classic;startArrow=classic;html=1;fontSize=20;entryX=0.5;entryY=1;entryDx=0;entryDy=0;exitX=1;exitY=0.5;exitDx=0;exitDy=0;" edge="1" parent="1" source="jRLjsOb8oNWtCYwyCR3H-1" target="jRLjsOb8oNWtCYwyCR3H-5">
          <mxGeometry width="50" height="50" relative="1" as="geometry">
            <mxPoint x="180" y="790" as="sourcePoint" />
            <mxPoint x="680" y="520" as="targetPoint" />
          </mxGeometry>
        </mxCell>
      </root>
    </mxGraphModel>
  </diagram>
</mxfile>
